<svg width="21" height="20" viewBox="0 0 21 20" fill="none" xmlns="http://www.w3.org/2000/svg">
<path fill-rule="evenodd" clip-rule="evenodd" d="M8.37426 1.75464C8.78591 1.96046 8.95276 2.46102 8.74694 2.87267L7.25623 5.85409C7.0504 6.26574 6.54984 6.4326 6.13819 6.22677C5.72655 6.02095 5.55969 5.52039 5.76552 5.10874L7.25623 2.12731C7.46205 1.71567 7.96261 1.54881 8.37426 1.75464Z" fill="white"/>
<path fill-rule="evenodd" clip-rule="evenodd" d="M12.6282 1.75464C13.0398 1.54882 13.5404 1.71567 13.7462 2.12732L15.2369 5.10874C15.4427 5.52039 15.2759 6.02095 14.8642 6.22678C14.4526 6.4326 13.952 6.26575 13.7462 5.8541L12.2555 2.87268C12.0497 2.46103 12.2165 1.96047 12.6282 1.75464Z" fill="white"/>
<path fill-rule="evenodd" clip-rule="evenodd" d="M2.58491 8.80474C2.29804 6.79662 3.85624 5 5.88474 5H15.1197C17.1482 5 18.7064 6.79663 18.4195 8.80474L17.5694 14.7559C17.2761 16.8086 15.5181 18.3333 13.4446 18.3333H7.55987C5.48632 18.3333 3.72832 16.8086 3.43508 14.7559L2.58491 8.80474ZM5.88474 6.66667C4.87049 6.66667 4.09139 7.56498 4.23483 8.56903L5.08499 14.5202C5.26094 15.7518 6.31574 16.6667 7.55987 16.6667H13.4446C14.6887 16.6667 15.7435 15.7518 15.9194 14.5202L16.7696 8.56904C16.913 7.56498 16.1339 6.66667 15.1197 6.66667H5.88474Z" fill="white"/>
</svg>
