<svg width="20" height="20" viewBox="0 0 20 20" fill="none" xmlns="http://www.w3.org/2000/svg">
<path fill-rule="evenodd" clip-rule="evenodd" d="M7.87426 1.75464C8.28591 1.96046 8.45276 2.46102 8.24694 2.87267L6.75623 5.85409C6.5504 6.26574 6.04984 6.4326 5.63819 6.22677C5.22655 6.02095 5.05969 5.52039 5.26552 5.10874L6.75623 2.12731C6.96205 1.71567 7.46261 1.54881 7.87426 1.75464Z" fill="#212121"/>
<path fill-rule="evenodd" clip-rule="evenodd" d="M12.1282 1.75464C12.5398 1.54882 13.0404 1.71567 13.2462 2.12732L14.7369 5.10874C14.9427 5.52039 14.7759 6.02095 14.3642 6.22678C13.9526 6.4326 13.452 6.26575 13.2462 5.8541L11.7555 2.87268C11.5497 2.46103 11.7165 1.96047 12.1282 1.75464Z" fill="#212121"/>
<path fill-rule="evenodd" clip-rule="evenodd" d="M2.08491 8.80474C1.79804 6.79662 3.35624 5 5.38474 5H14.6197C16.6482 5 18.2064 6.79663 17.9195 8.80474L17.0694 14.7559C16.7761 16.8086 15.0181 18.3333 12.9446 18.3333H7.05987C4.98632 18.3333 3.22832 16.8086 2.93508 14.7559L2.08491 8.80474ZM5.38474 6.66667C4.37049 6.66667 3.59139 7.56498 3.73483 8.56903L4.58499 14.5202C4.76094 15.7518 5.81574 16.6667 7.05987 16.6667H12.9446C14.1887 16.6667 15.2435 15.7518 15.4194 14.5202L16.2696 8.56904C16.413 7.56498 15.6339 6.66667 14.6197 6.66667H5.38474Z" fill="#212121"/>
</svg>
