<svg width="226" height="49" viewBox="0 0 226 49" fill="none" xmlns="http://www.w3.org/2000/svg">
<path d="M139.693 16.5819C139.693 25.0155 139.433 32.1805 139.872 39.306C139.98 41.12 142.296 42.8075 143.556 44.495C138.504 44.495 132.858 45.159 127.503 44.2263C124.612 43.7244 121.478 40.9619 119.747 38.3931C115.477 32.0422 111.956 25.2171 108.016 18.3801C106.058 20.613 104.427 22.4586 102.832 24.3081L101.955 23.6363C103.335 20.9924 104.866 18.4078 106.042 15.6809C107.127 13.1555 107.849 10.4919 109.077 6.80859C114.918 17.5778 120.05 27.0469 125.198 36.512C125.972 37.9386 126.466 39.8988 127.698 40.6142C129.712 41.776 132.288 42.7443 134.509 42.5388C135.582 42.44 137.105 39.5273 137.181 37.8359C137.492 30.7934 137.647 23.7074 137.181 16.6807C137.025 14.3965 134.764 12.2505 133.428 9.9623C137.484 9.37345 141.575 9.40507 145.315 13.7088C151.631 20.9726 158.653 27.6515 166.11 35.3264C166.11 27.5014 166.317 20.5893 165.922 13.7049C165.851 12.4481 163.346 11.3337 161.855 10.0492H171.194C170.424 12.6497 168.985 15.424 168.885 18.2378C168.578 27.0271 168.773 35.8283 167.792 45.2696C158.741 36.0377 149.717 26.8019 139.693 16.5819Z" fill="#212121"/>
<path d="M51.656 28.8175C56.6723 34.1013 58.6062 41.5351 66.5213 44.1237C57.9682 45.8191 56.1339 45.1314 51.8235 38.8754C50.5634 37.0456 49.3991 35.1447 48.0194 33.4058C46.6397 31.6669 45.1085 30.173 43.362 28.2682C48.3264 27.296 52.4096 25.5017 52.2222 19.6962C52.0707 14.9775 49.4788 11.6262 44.646 11.4721C35.6144 11.1836 26.5628 11.4247 17.5311 11.4721C17.0786 11.4924 16.6295 11.56 16.1913 11.6736C9.86717 13.0292 6.22261 19.6132 7.0201 28.3314C7.86944 37.8558 12.0683 43.3925 18.7513 43.7877C25.0874 44.1829 29.8923 40.2309 31.2999 33.4848C32.6671 27.4099 31.637 21.0468 28.4209 15.7007C31.6309 14.61 34.0034 15.4004 35.4389 17.9218C38.9838 24.0593 38.9319 30.4102 35.1837 36.35C30.7975 43.2858 23.9829 46.0048 15.8245 45.0998C9.12948 44.3766 3.90987 41.0767 2.1793 34.5282C-1.2938 21.5102 4.97054 10.0928 18.9267 9.80829C28.5685 9.61069 38.2222 9.7332 47.8639 9.97822C52.1744 10.0889 55.8827 11.8673 57.3302 16.2145C58.7378 20.4471 57.2305 23.9921 53.873 26.885C53.2829 27.3434 52.7446 27.8453 51.656 28.8175Z" fill="#212121"/>
<path d="M85.9483 28.4575C87.9739 28.2678 88.9748 28.1018 89.9756 28.0939C94.003 28.0623 98.0344 28.0939 102.405 28.4575C96.1563 30.8564 98.5049 36.0137 97.6874 41.3885C92.2445 42.6057 86.4228 44.724 80.4934 45.052C70.0462 45.629 62.8009 37.5708 63.0801 26.8727C63.3552 16.4196 70.7879 9.34157 81.2949 9.77629C83.9705 9.88695 86.6062 10.7208 89.2699 11.1476C91.4231 11.4875 93.5963 11.7128 96.2639 12.0527V23.6874L95.5382 23.9443C95.0477 22.735 94.5333 21.5335 94.0628 20.3163C91.7939 14.4594 85.8805 10.5153 80.1385 11.0449C74.5082 11.5745 70.3652 15.1787 69.8189 22.0354C69.4913 27.2386 70.2083 32.4545 71.9283 37.3811C73.6509 42.3844 78.7868 44.4513 84.1021 43.6727C87.7865 43.1313 90.6136 41.4912 91.2516 37.4641C92.0013 32.7652 91.2516 31.1804 85.9483 28.4575Z" fill="#212121"/>
<path d="M192.817 45.2301C181.907 45.2024 175.232 38.812 175.232 28.3905C175.232 17.2695 182.53 9.91879 193.575 9.89508C204.485 9.87137 212.161 17.0482 212.121 27.2247C212.085 38.2469 204.564 45.2577 192.817 45.2301ZM206.861 27.7384C205.438 23.9722 204.608 19.6487 202.343 16.2302C197.686 9.20348 186.884 9.71329 183.323 17.0759C179.802 24.3674 180.017 32.0224 184.459 38.9622C185.475 40.5846 186.906 41.9122 188.606 42.8106C190.306 43.7089 192.215 44.1461 194.14 44.078C196.066 44.0098 197.939 43.4386 199.57 42.4222C201.201 41.4059 202.532 39.9805 203.428 38.2903C205.087 35.2868 205.613 31.73 206.861 27.7384Z" fill="#212121"/>
<path d="M211.515 1.835H210.032V6H209.118V1.835H207.635V1.0836H211.515V1.835ZM217.489 1.0836V6H216.683V2.8244C216.683 2.69747 216.69 2.56033 216.704 2.413L215.218 5.2044C215.148 5.33813 215.04 5.405 214.895 5.405H214.766C214.621 5.405 214.513 5.33813 214.443 5.2044L212.94 2.4028C212.947 2.4776 212.952 2.55127 212.957 2.6238C212.961 2.69633 212.964 2.7632 212.964 2.8244V6H212.158V1.0836H212.848C212.889 1.0836 212.924 1.08473 212.954 1.087C212.983 1.08927 213.009 1.09493 213.032 1.104C213.057 1.11307 213.078 1.1278 213.096 1.1482C213.117 1.1686 213.136 1.1958 213.154 1.2298L214.626 3.96C214.665 4.03253 214.7 4.10733 214.732 4.1844C214.766 4.26147 214.799 4.3408 214.83 4.4224C214.862 4.33853 214.895 4.25807 214.929 4.181C214.963 4.10167 214.999 4.02573 215.038 3.9532L216.49 1.2298C216.508 1.1958 216.527 1.1686 216.547 1.1482C216.568 1.1278 216.589 1.11307 216.612 1.104C216.637 1.09493 216.664 1.08927 216.694 1.087C216.723 1.08473 216.758 1.0836 216.799 1.0836H217.489Z" fill="#865B63"/>
</svg>
